<?xml version="1.0" standalone="no"?>
<!DOCTYPE svg PUBLIC "-//W3C//DTD SVG 1.1//EN" "http://www.w3.org/Graphics/SVG/1.1/DTD/svg11.dtd"><svg t="1594017175519"
    class="icon" viewBox="0 0 1024 1024" version="1.1" xmlns="http://www.w3.org/2000/svg" p-id="1933"
    xmlns:xlink="http://www.w3.org/1999/xlink" width="16" height="16">
    <defs>
        <style type="text/css"></style>
    </defs>
    <path
        d="M874.666667 128h-170.666667a21.333333 21.333333 0 0 0 0 42.666667h119.168l-176.917333 176.917333a21.333333 21.333333 0 1 0 30.165333 30.165333L853.333333 200.832V320a21.333333 21.333333 0 0 0 42.666667 0V149.333333a21.333333 21.333333 0 0 0-21.333333-21.333333zM347.584 646.250667L170.666667 823.168V704a21.333333 21.333333 0 0 0-42.666667 0v170.666667a21.333333 21.333333 0 0 0 21.333333 21.333333h170.666667a21.333333 21.333333 0 0 0 0-42.666667H200.832l176.917333-176.917333a21.333333 21.333333 0 0 0-30.165333-30.165333zM874.666667 682.666667a21.333333 21.333333 0 0 0-21.333334 21.333333v119.168l-176.917333-176.917333a21.333333 21.333333 0 0 0-30.165333 30.165333L823.168 853.333333H704a21.333333 21.333333 0 0 0 0 42.666667h170.666667a21.333333 21.333333 0 0 0 21.333333-21.333333v-170.666667a21.333333 21.333333 0 0 0-21.333333-21.333333zM200.832 170.666667H320a21.333333 21.333333 0 0 0 0-42.666667H149.333333a21.333333 21.333333 0 0 0-21.333333 21.333333v170.666667a21.333333 21.333333 0 0 0 42.666667 0V200.832l176.917333 176.917333a21.333333 21.333333 0 0 0 30.165333-30.165333z"
        fill="#ffffff" p-id="1934"></path>
</svg>