<?xml version="1.0" standalone="no"?>
<!DOCTYPE svg PUBLIC "-//W3C//DTD SVG 1.1//EN" "http://www.w3.org/Graphics/SVG/1.1/DTD/svg11.dtd"><svg t="1597412561411"
    class="icon" viewBox="0 0 1024 1024" version="1.1" xmlns="http://www.w3.org/2000/svg" p-id="780"
    xmlns:xlink="http://www.w3.org/1999/xlink" width="16" height="16">
    <defs>
        <style type="text/css"></style>
    </defs>
    <path d="M512 384m-170.666667 0a170.666667 170.666667 0 1 0 341.333334 0 170.666667 170.666667 0 1 0-341.333334 0Z"
        fill="#009688" p-id="781"></path>
    <path d="M341.333333 384h341.333334v128H341.333333z" fill="#E89419" p-id="782"></path>
    <path
        d="M661.333333 106.666667v85.333333h-46.933333c-51.2 0-25.6-21.333333-102.4-21.333333V85.333333c76.8 0 51.2 21.333333 102.4 21.333334H661.333333z"
        fill="#2196F3" p-id="783"></path>
    <path d="M85.333333 512h853.333334v362.666667H85.333333z" fill="#FFB74D" p-id="784"></path>
    <path
        d="M661.333333 725.333333h85.333334v106.666667h-85.333334zM533.333333 725.333333h85.333334v106.666667h-85.333334zM405.333333 725.333333h85.333334v106.666667h-85.333334zM789.333333 725.333333h85.333334v106.666667h-85.333334zM277.333333 725.333333h85.333334v106.666667h-85.333334zM149.333333 725.333333h85.333334v106.666667H149.333333zM661.333333 576h85.333334v106.666667h-85.333334zM533.333333 576h85.333334v106.666667h-85.333334zM405.333333 576h85.333334v106.666667h-85.333334zM618.666667 512h-85.333334v-64c0-23.466667 19.2-42.666667 42.666667-42.666667s42.666667 19.2 42.666667 42.666667v64zM490.666667 512h-85.333334v-64c0-23.466667 19.2-42.666667 42.666667-42.666667s42.666667 19.2 42.666667 42.666667v64zM789.333333 576h85.333334v106.666667h-85.333334zM277.333333 576h85.333334v106.666667h-85.333334zM149.333333 576h85.333334v106.666667H149.333333z"
        fill="#B07424" p-id="785"></path>
</svg>