<?xml version="1.0" encoding="UTF-8" standalone="no"?>
<!DOCTYPE svg PUBLIC "-//W3C//DTD SVG 1.1//EN" "http://www.w3.org/Graphics/SVG/1.1/DTD/svg11.dtd">
<svg t="1735286082742" class="icon" viewBox="0 0 1024 1024" version="1.1"
    xmlns="http://www.w3.org/2000/svg" p-id="2501" width="512" height="512"
    xmlns:xlink="http://www.w3.org/1999/xlink">
    <path
        d="M648.728381 130.779429a73.142857 73.142857 0 0 1 22.674286 15.433142l191.561143 191.756191a73.142857 73.142857 0 0 1-22.137905 118.564571l-67.876572 30.061715-127.341714 127.488-10.093714 140.239238a73.142857 73.142857 0 0 1-124.684191 46.445714l-123.66019-123.782095-210.724572 211.699809-51.833904-51.614476 210.846476-211.821714-127.926857-128.024381a73.142857 73.142857 0 0 1 46.299428-124.635429l144.237715-10.776381 125.074285-125.220571 29.379048-67.779048a73.142857 73.142857 0 0 1 96.207238-38.034285z"
        p-id="2502" fill="white"></path>
</svg>